<svg width="72" height="96" viewBox="0 0 72 96" fill="none" xmlns="http://www.w3.org/2000/svg">
<path d="M70.5534 29.6328L53.3304 40.96V30.3386L51.7348 29.4093L33.5167 40.8372V30.08L32.1885 29.4093L14.0975 40.4471L9.57808 13.6986L8.51288 13.0586H1.06521L0 14.0843V96H71.5529V30.5928L70.5534 29.6328Z" fill="#FF2729"/>
<path d="M2.16553 15.0928V74.3191H69.7294V32.1624L52.8833 43.4281L51.2877 42.7443V31.8248L33.0214 43.4281L31.6011 42.5733V31.9914L14.045 42.9152L12.274 42.4024L7.83786 15.0928H2.16553Z" fill="white"/>
<path d="M56.9907 50.7357C57.2274 49.8546 57.0784 49.9423 57.4904 49.5434C57.9025 49.1445 59.0291 47.8996 58.9107 47.6672C58.7924 47.4393 57.8455 48.2941 57.0521 48.4957C56.2499 48.693 55.4828 48.8596 55.4521 48.6404C55.4258 48.4124 55.8378 47.9829 55.8685 47.7549C55.8992 47.5313 54.2115 48.7544 53.6548 49.0086C53.0937 49.2629 48.5085 50.4902 47.8554 50.5735C47.211 50.6612 43.1562 50.933 41.5606 51.1171C40.5567 51.2311 37.9222 51.7702 36.9798 52.1385C36.537 52.2831 35.0291 51.7439 33.5825 51.7133C32.1315 51.687 30.9217 51.9982 30.3299 51.9982C29.7381 51.9982 24.6532 51.6563 23.7984 51.6563C23.7984 51.6563 22.1721 51.6563 21.4313 51.9675C20.6905 52.2787 19.0115 53.4755 18.56 53.7867C18.1217 54.0979 16.434 55.2683 15.6099 56.4607C14.7814 57.653 13.7776 59.6168 13.5672 61.265C13.3611 62.9176 13.3918 65.219 13.4795 65.7319C13.4795 65.7319 12.8307 66.2448 12.8 66.8979C12.7737 67.5511 13.1814 67.9237 13.4795 68.6338C13.7776 69.3439 13.8083 69.6552 13.8083 69.6552C13.8083 69.6552 15.0488 69.059 14.6937 67.4064C14.3431 65.7582 14.2817 65.8722 14.2817 65.8722C14.2817 65.8722 14.4 61.9708 14.6937 60.9494C14.9874 59.9237 15.2241 58.0256 16.3814 57.6793C16.3814 57.6793 16.3814 60.0683 17.0039 61.4667C17.622 62.8607 18.6258 65.39 18.6258 65.9598C18.6258 66.5297 17.9463 68.1516 18.1261 68.8048C18.3014 69.4579 18.4505 70.1111 19.1606 70.5976C19.1606 70.5976 18.9765 72.7587 19.2176 72.8464C19.4543 72.9253 19.6647 72.9867 19.6647 72.9867C19.6647 72.9867 20.0768 74.0387 20.5195 74.2097C20.9666 74.3807 21.76 74.4639 22.3211 73.9248C22.3211 73.9248 23.9737 74.3237 24.2718 74.2974C24.5655 74.2667 25.4554 73.5522 24.9206 72.6711C24.3902 71.79 23.4126 70.339 23.6494 67.6124C24.0351 66.2448 25.302 65.7363 26.3935 65.6749C26.3935 65.6749 28.5852 65.6486 28.6992 66.5867C28.822 67.5248 28.822 68.4366 29.085 68.4892C29.3524 68.5418 29.291 68.3752 29.291 68.3752C29.291 68.3752 29.5277 68.4629 29.7381 68.3226C29.9441 68.1779 30.1239 67.7527 30.3299 67.1565C30.5359 66.5604 30.2115 65.9905 32.6926 65.9905C35.1737 65.9905 37.0981 66.1615 37.6022 66.5604C38.1063 66.9549 39.5485 69.6289 39.5485 70.0848C39.5485 70.5407 39.3732 71.1105 39.2855 71.5664C39.1978 72.0223 39.2855 72.6185 39.6669 73.1576C40.0526 73.7012 40.377 74.1527 41.0565 74.1527C41.7359 74.1527 42.7091 73.8678 42.7441 73.2716C42.7441 73.2716 42.8888 74.2097 44.3047 74.2097C45.7206 74.2097 45.1376 73.0174 44.9578 72.7324C44.7825 72.4475 43.9847 71.9083 43.9847 71.9083C43.9847 71.9083 44.103 68.5812 44.6641 68.0113C45.2252 67.4415 45.3436 67.2661 46.1414 66.9286C46.9348 66.5911 48.6269 65.5653 49.5387 64.4826C50.4548 63.3998 51.222 62.0366 51.2483 61.3527C51.2483 61.3527 51.9584 60.9275 52.9359 59.9281C53.9135 58.933 53.7907 58.4771 54.2378 58.3368C54.6806 58.1965 55.8904 58.4815 56.0088 58.3938C56.1315 58.3105 56.0965 57.767 56.0965 57.767C56.0965 57.767 56.4822 58.1659 56.7496 58.0782C57.0126 57.9905 58.3146 57.7056 58.4022 56.3993C58.4943 55.093 56.7496 51.6212 56.982 50.7357H56.9907ZM22.2948 72.7544C22.1765 72.7544 21.611 71.7856 21.5233 71.6716C21.4357 71.5576 21.3436 71.7023 21.3173 71.6146C21.2866 71.527 21.142 70.2513 21.2866 70.2207C21.5847 70.3609 22.4132 72.75 22.2948 72.75V72.7544ZM41.885 72.0618C41.7096 71.847 41.2187 71.5445 41.2187 71.5445C41.5781 71.2903 41.5299 69.8393 41.5299 69.8393C41.7973 70.3522 42.0603 72.2722 41.8806 72.0618H41.885Z" fill="#000011"/>
<path d="M10.522 7.98145C10.3904 7.87673 10.2198 7.74778 10.02 7.62012C9.55556 7.32335 8.89799 6.99912 8.21533 6.99902C8.02081 6.99902 7.79329 7.04901 7.56006 7.12207C7.32216 7.1966 7.05688 7.30124 6.77979 7.42383C6.22528 7.66915 5.6046 7.99446 5.02686 8.31641C4.66173 8.51987 4.3123 8.72426 4.00439 8.90723L7.73877 3.15332C7.85452 3.25681 8.00263 3.38225 8.17529 3.50684C8.58826 3.80476 9.18519 4.13961 9.81494 4.13965C10.0193 4.13965 10.2559 4.05371 10.4829 3.94629C10.721 3.83357 10.9921 3.67563 11.2778 3.49219C11.85 3.12484 12.5063 2.63836 13.1235 2.15625C13.5131 1.85192 13.8879 1.54623 14.2202 1.27246L10.522 7.98145Z" fill="#000011" stroke="#A7A2A3" stroke-width="0.600018"/>
<path d="M4.43604 92.4842V77.5801H6.6059V92.4842H4.43604Z" fill="white"/>
<path d="M8.8418 92.4842V77.5801H10.9591L15.3733 87.5351V77.5801H17.3985V92.4842H15.2067L10.867 82.7658V92.4842H8.8418Z" fill="white"/>
<path d="M19.8096 92.4842V77.5801H23.3033C24.6052 77.5801 25.46 77.6502 25.8589 77.7905C26.4989 78.0228 27.0293 78.5138 27.4414 79.2678C27.8578 80.0173 28.0638 80.9905 28.0638 82.1741C28.0638 83.2524 27.8841 84.1554 27.5246 84.8875C27.1652 85.6151 26.7224 86.1236 26.1833 86.4217C25.6441 86.7154 24.7192 86.8645 23.4041 86.8645H21.9794V92.4886H19.814L19.8096 92.4842ZM21.9794 80.1006V84.3395H23.1849C23.9959 84.3395 24.5438 84.2738 24.8375 84.1467C25.1268 84.0195 25.3679 83.7828 25.552 83.4453C25.7361 83.1078 25.8326 82.7001 25.8326 82.2091C25.8326 81.7182 25.7361 81.2973 25.5433 80.9554C25.3504 80.6179 25.1137 80.3899 24.8331 80.2716C24.5526 80.1576 23.9564 80.1006 23.0446 80.1006H21.9838H21.9794Z" fill="white"/>
<path d="M29.9878 92.4842V77.5801H37.9834V80.1006H32.1577V83.4058H37.5714V85.9132H32.1577V89.9593H38.1807V92.4798H29.9878V92.4842Z" fill="white"/>
<path d="M40.2104 92.4845V77.7031H42.3803V89.9639H47.794V92.4845H40.2104Z" fill="white"/>
<path d="M48.9292 87.6232L51.0552 87.3426C51.2919 89.2451 52.0766 90.1963 53.4004 90.1963C54.058 90.1963 54.5752 90.0034 54.9522 89.6133C55.3248 89.2232 55.5133 88.741 55.5133 88.1667C55.5133 87.8292 55.4475 87.5399 55.3204 87.2988C55.1889 87.0621 54.9873 86.8692 54.7155 86.7158C54.4481 86.5623 53.7993 86.3081 52.7604 85.9486C51.8355 85.6286 51.156 85.2867 50.7264 84.9141C50.2969 84.5371 49.9549 84.0506 49.7007 83.4456C49.4421 82.8407 49.3193 82.1875 49.3193 81.4906C49.3193 80.6796 49.4815 79.9475 49.8059 79.2944C50.1347 78.6456 50.5818 78.1547 51.156 77.8215C51.7303 77.4927 52.436 77.3262 53.2821 77.3262C54.5445 77.3262 55.5352 77.7163 56.2497 78.4966C56.9599 79.2769 57.3369 80.3903 57.3807 81.8412L55.2021 81.9727C55.1056 81.1706 54.8996 80.6138 54.584 80.2982C54.264 79.9782 53.8169 79.8204 53.2295 79.8204C52.6421 79.8204 52.1949 79.9607 51.8749 80.2369C51.5593 80.513 51.4015 80.8549 51.4015 81.2714C51.4015 81.6878 51.5418 82.0166 51.8311 82.2971C52.1204 82.5733 52.7823 82.8758 53.8125 83.2089C54.9084 83.5684 55.6974 83.9454 56.184 84.3443C56.6706 84.7388 57.0388 85.2517 57.2974 85.8785C57.5517 86.5054 57.6832 87.2637 57.6832 88.158C57.6832 89.4511 57.3325 90.5382 56.6267 91.4193C55.9254 92.3004 54.8251 92.7388 53.3347 92.7388C50.6914 92.7388 49.2229 91.038 48.9248 87.6232H48.9292Z" fill="white"/>
<path d="M69.3699 92.4842H67.0115L66.0691 89.1088H61.7557L60.8658 92.4842H58.5513L62.7463 77.5801H65.0521L69.3743 92.4842H69.3699ZM65.3677 86.5839L63.8817 81.0519L62.422 86.5839H65.3677Z" fill="white"/>
</svg>
